<svg xmlns="http://www.w3.org/2000/svg" xmlns:xlink="http://www.w3.org/1999/xlink" width="699.2" height="740" viewBox="0 0 699.2 740">
  <defs>
    <radialGradient id="radial-gradient" cx="-0.308" cy="0.547" r="1.453" gradientTransform="matrix(0.999, 0.033, -0.017, 0.532, 0.009, 0.266)" gradientUnits="objectBoundingBox">
      <stop offset="0" stop-color="#bbe669"/>
      <stop offset="1" stop-color="#7dbd44"/>
    </radialGradient>
    <radialGradient id="radial-gradient-2" cx="0.487" cy="-1.383" r="2.383" gradientTransform="matrix(0, 1, -0.547, 0, -0.269, -1.871)" xlink:href="#radial-gradient"/>
    <radialGradient id="radial-gradient-3" cx="1.308" cy="0.547" r="1.453" gradientTransform="matrix(-0.999, 0.033, 0.017, 0.532, 2.605, 0.214)" xlink:href="#radial-gradient"/>
    <radialGradient id="radial-gradient-4" cx="0.5" cy="0.5" r="0.5" gradientTransform="matrix(1, 0, 0, 1, 0, 0)" xlink:href="#radial-gradient"/>
  </defs>
  <g id="Group_40" data-name="Group 40" transform="translate(-150.4 -130)">
    <g id="ngx-quill-logo-variant-1">
      <g id="icon_angular" transform="translate(20.4 20.2)">
        <path id="Path_1" data-name="Path 1" d="M562.6,109.8,804.1,629.5l25.1-396.4Z" fill="url(#radial-gradient)"/>
        <path id="Path_2" data-name="Path 2" d="M624.9,655.9H334.3l-37.1,89.9,182.4,104L662,745.8Z" fill="url(#radial-gradient-2)"/>
        <path id="Path_12" data-name="Path 12" d="M829.2,109.8,587.7,629.5,562.6,233.1Z" transform="translate(-432.6)" fill="url(#radial-gradient-3)"/>
      </g>
    </g>
    <g id="Group_38" data-name="Group 38" transform="translate(1416.875 -1151.353)">
      <path id="Subtraction_3" data-name="Subtraction 3" d="M-5889.085-348.982h0c-6.6-.472-14.106-3.273-22.308-8.326a118.835,118.835,0,0,1-16.837-12.811l.052.016.009,0c7.651-17.692,15.6-35.919,23.282-53.546l.04-.09c8.845-20.288,17.992-41.267,26.684-61.424,14.467-35.743,30.1-71.354,46.469-105.845l.012-.031c7.1-17.944,28.7-72.549,36.9-91.091l-.175-.523-.007-.022c-.018-.054-.065-.2-.18-.544l-2.189,4.8c-9.477,20.772-29.2,64-36.938,79.67-7.887,16.981-15.91,34.264-23.669,50.978l-1.56,3.359-8.332,17.947-16.761,35.915-16.76,35.915-2.622,5.618c-10.973,24.618-22.744,49.14-34.041,70.916a.036.036,0,0,0,0,.008c-5.422-3.611-14.481-9.419-26.85-16.578a40.15,40.15,0,0,1-8.118-8.854,68.83,68.83,0,0,1-6.963-13.048,99.4,99.4,0,0,1-5.127-16.759,126.439,126.439,0,0,1-2.608-19.988,159.2,159.2,0,0,1,5.066-47.727,206.451,206.451,0,0,1,23.323-54.843,208.6,208.6,0,0,1,20.349-27.882,323.107,323.107,0,0,1,25.221-26.128,519.4,519.4,0,0,1,55.7-44.572c18.779-13.167,36-23.741,47.137-30.293,12.118-7.128,19.792-11.134,19.868-11.173l.009.019c.333.79,3.368,8.066,7.333,19.931,2.458,7.354,4.792,15.017,6.938,22.775,2.685,9.7,5.082,19.592,7.125,29.388a415.927,415.927,0,0,1,8.84,72.85,331.864,331.864,0,0,1-1.271,40.58,276.568,276.568,0,0,1-7.057,41.428,318.514,318.514,0,0,1-11.524,36.771,202.665,202.665,0,0,1-13.388,28.312,135.394,135.394,0,0,1-14.815,20.973,100.918,100.918,0,0,1-15.808,14.752,90.135,90.135,0,0,1-32.853,15.318C-5868.756-350.061-5879.784-349.33-5889.085-348.982Z" transform="translate(4945.376 2094.293)" fill="url(#radial-gradient-4)"/>
    </g>
  </g>
</svg>
